PathFileType	4	(X/Y/Z)	Walk5.trc
DataRate	CameraRate	NumFrames	NumMarkers	Units	OrigDataRate	OrigDataStartFrame	OrigNumFrames
200.000000	200.000000	8	59	mm	200.000000	702	826
Frame#	Times		RCAR		LFHD		RFHD		RWRU		LMT1		RACR1		LTH3		RASI		LTB1		RUA1		RFA1		LACR1		LLFC		LUA1		LTB4		LTB3		LToe		RTH2		STRN		LTH4		RBHD		LTH2		LElbow		RTH4		RLFC		CLAV		LASI		RTH3		LWRU		LFA1		RBack		C7		RTH1		RMT1		RMT5		LPSI		LCAR		RCAL		RToe		RLMAL		LTH1		LBHD		RPSI		RTB2		RTB4		RTB1		RElbow		RTB3		RMMAL		LTB2		LMT5		LWRR		RWRR		RElbowM		LLMAL		LMMAL		T10		LCAL		LElbowM
			X1	Y1	Z1	X2	Y2	Z2	X3	Y3	Z3	X4	Y4	Z4	X5	Y5	Z5	X6	Y6	Z6	X7	Y7	Z7	X8	Y8	Z8	X9	Y9	Z9	X10	Y10	Z10	X11	Y11	Z11	X12	Y12	Z12	X13	Y13	Z13	X14	Y14	Z14	X15	Y15	Z15	X16	Y16	Z16	X17	Y17	Z17	X18	Y18	Z18	X19	Y19	Z19	X20	Y20	Z20	X21	Y21	Z21	X22	Y22	Z22	X23	Y23	Z23	X24	Y24	Z24	X25	Y25	Z25	X26	Y26	Z26	X27	Y27	Z27	X28	Y28	Z28	X29	Y29	Z29	X30	Y30	Z30	X31	Y31	Z31	X32	Y32	Z32	X33	Y33	Z33	X34	Y34	Z34	X35	Y35	Z35	X36	Y36	Z36	X37	Y37	Z37	X38	Y38	Z38	X39	Y39	Z39	X40	Y40	Z40	X41	Y41	Z41	X42	Y42	Z42	X43	Y43	Z43	X44	Y44	Z44	X45	Y45	Z45	X46	Y46	Z46	X47	Y47	Z47	X48	Y48	Z48	X49	Y49	Z49	X50	Y50	Z50	X51	Y51	Z51	X52	Y52	Z52	X53	Y53	Z53	X54	Y54	Z54	X55	Y55	Z55	X56	Y56	Z56	X57	Y57	Z57	X58	Y58	Z58	X59	Y59	Z59

702	3.51	368.32	796.51	403.13	389.94	1575.8	28.628	398.07	1572.2	125.9	316.76	838.94	416.75	538.54	79.253	-87.498	272.06	1366.4	248.43	340.01	572.42	-161.17	330.35	947.61	226.58	414.85	357.61	-64.03	251.92	1220.9	336.45	310.55	946.52	390.03	259.84	1376.3	-109.09	335.66	501.03	-147.86	219.55	1237.6	-192.5	416.73	272.85	-74.387	426.65	187.99	-83.09	571.87	92.946	-98.872	266.02	622.99	214.16	398.35	1219.5	70.478	315.9	654.05	-185.43	228.91	1569.3	148.35	370.43	673.54	-168.02	142.15	1105	-227.21	209.75	632.83	231.79	174.89	457.43	196.73	338.01	1338.5	69.034	325.81	973.7	-132.05	190.96	549.54	212.45	123.82	869.85	-305.99	171.61	978.22	-272.3	128.58	1309.3	180.94	180.82	1417	90.15	240.12	709.11	251.22	221.41	35.568	85.117	211.82	26.771	177.87	93.265	992.47	-52.693	152.4	817.39	-315.28	33.508	30.099	128.58	267.2	31.42	94.235	90.901	67.163	170.74	295.12	734.44	-207.02	236.49	1562.7	12.291	80.923	988.66	80.325	167.33	267.62	177.06	176.62	261.14	116.04	209.19	341.43	112.72	221.67	1057.6	378.05	156.29	178.45	117.76	108.05	75.012	85.385	401.08	278.89	-133.93	506.88	58.994	-165.37	181.97	855.36	-260.64	356.26	850.75	355.29	184.65	1036	296.1	389.15	84.2	-139.66	414.61	92.312	-58.971	115.14	1091.5	44.157	354.47	32.009	-87.625	145.29	1061.6	-127.6
703	3.515	373.04	796.55	403.17	394.65	1575.2	27.791	402.76	1571.5	125.07	321.47	839.01	416.73	551.59	82.086	-86.113	276.58	1366.2	247.61	342.54	570.69	-161.08	334.18	947.12	226.46	421.28	358.37	-62.593	257	1220.6	335.54	315.25	946.53	389.82	264.2	1375.7	-109.83	339.23	499.9	-147.09	223.41	1237.1	-193.14	425.32	273.63	-73.365	437.17	188.97	-82.383	584.7	96.421	-97.1	269.38	622.46	213.97	402.94	1219	70.451	319.06	652.51	-185.39	233.6	1568.8	147.5	373.69	671.64	-167.83	145.53	1104.7	-227.54	213.1	632.46	231.4	177.73	457.13	196.48	342.55	1337.9	68.388	330.71	972.84	-132.09	194.12	549.23	212.14	125.16	869.66	-306.2	173.94	977.7	-272.69	133.14	1308.8	180.17	185.37	1416.5	89.366	243.61	708.66	250.93	221.45	35.555	85.119	211.83	26.768	177.89	98.057	991.91	-53.681	153.28	816.96	-315.55	33.557	30.394	128.54	267.35	31.361	94.297	91.086	67.371	170.71	298.87	733.06	-206.96	241.18	1562.2	11.436	85.275	988.25	79.294	168.85	267.34	176.98	178.17	260.77	115.95	211.35	340.81	112.61	226.46	1057.6	377.7	157.22	178.21	117.72	108.2	75.077	85.279	410.09	279.59	-133.01	520.81	61.058	-164.25	183.38	854.74	-261.07	360.98	850.73	355.25	189.16	1035.9	295.89	402.33	84.402	-139.52	426.96	92.934	-58.708	119.66	1090.9	43.383	368.15	31.444	-87.826	148.72	1061.4	-127.86
704	3.52	377.7	796.56	403.15	399.34	1574.5	26.911	407.44	1570.8	124.2	326.14	839.06	416.67	563.99	84.771	-84.666	281.08	1365.9	246.74	345.1	568.94	-161.08	338.05	946.61	226.29	427.64	359.08	-61.167	262.03	1220.3	334.58	319.91	946.53	389.56	268.56	1375	-110.62	343.02	498.79	-146.37	227.28	1236.6	-193.8	433.66	274.39	-72.302	447.29	189.95	-81.594	596.91	99.681	-95.265	272.77	621.9	213.78	407.53	1218.5	70.386	322.26	650.96	-185.42	238.28	1568.2	146.59	376.98	669.72	-167.65	148.94	1104.3	-227.89	216.51	632.07	230.99	180.59	456.82	196.21	347.09	1337.4	67.702	335.67	971.94	-132.16	197.3	548.91	211.82	126.59	869.42	-306.41	176.34	977.15	-273.09	137.69	1308.3	179.34	189.91	1415.9	88.533	247.17	708.2	250.63	221.49	35.543	85.118	211.84	26.766	177.9	102.87	991.33	-54.689	154.25	816.5	-315.84	33.617	30.704	128.5	267.5	31.308	94.355	91.274	67.588	170.68	302.68	731.68	-206.95	245.86	1561.6	10.534	89.651	987.82	78.244	170.38	267.05	176.88	179.72	260.38	115.84	213.52	340.18	112.49	231.24	1057.7	377.32	158.16	177.98	117.67	108.34	75.151	85.17	418.89	280.28	-132.05	534.07	63.05	-163.03	184.86	854.09	-261.49	365.63	850.68	355.16	193.6	1035.8	295.66	414.93	84.712	-139.26	438.74	93.624	-58.323	124.19	1090.3	42.582	381.21	31.039	-87.897	152.18	1061.1	-128.14
705	3.525	382.29	796.55	403.07	404.01	1573.8	25.989	412.09	1570.1	123.29	330.76	839.1	416.57	575.7	87.261	-83.15	285.56	1365.7	245.83	347.75	567.19	-161.17	341.97	946.1	226.05	433.92	359.71	-59.76	267.02	1220	333.59	324.53	946.51	389.25	272.94	1374.3	-111.44	347.07	497.72	-145.72	231.16	1236	-194.49	441.77	275.1	-71.198	456.98	190.88	-80.719	608.47	102.68	-93.362	276.21	621.32	213.57	412.13	1218	70.272	325.53	649.41	-185.53	242.93	1567.6	145.64	380.32	667.82	-167.49	152.39	1103.9	-228.27	219.95	631.67	230.59	183.46	456.5	195.94	351.62	1336.8	66.972	340.69	971	-132.24	200.52	548.58	211.49	128.09	869.14	-306.64	178.78	976.55	-273.5	142.22	1307.8	178.47	194.44	1415.3	87.652	250.78	707.73	250.31	221.53	35.531	85.114	211.84	26.766	177.92	107.69	990.72	-55.713	155.32	816	-316.13	33.686	31.03	128.47	267.64	31.261	94.408	91.464	67.815	170.66	306.53	730.28	-206.98	250.52	1561	9.5849	94.049	987.36	77.177	171.92	266.75	176.78	181.29	259.99	115.72	215.68	339.55	112.35	235.99	1057.7	376.9	159.1	177.74	117.62	108.49	75.236	85.058	427.46	280.95	-131.04	546.64	64.921	-161.72	186.41	853.4	-261.92	370.22	850.61	355.02	197.98	1035.7	295.41	426.9	85.087	-138.88	449.92	94.339	-57.809	128.74	1089.6	41.758	393.58	30.753	-87.828	155.67	1060.7	-128.45
706	3.53	386.82	796.51	402.95	408.67	1573.1	25.023	416.73	1569.3	122.33	335.32	839.12	416.42	586.71	89.507	-81.559	290.03	1365.4	244.88	350.53	565.46	-161.34	345.94	945.58	225.76	440.14	360.25	-58.378	271.96	1219.7	332.58	329.11	946.48	388.88	277.33	1373.6	-112.31	351.42	496.71	-145.12	235.05	1235.3	-195.22	449.61	275.72	-70.056	466.22	191.73	-79.755	619.36	105.36	-91.389	279.69	620.72	213.36	416.72	1217.5	70.1	328.91	647.88	-185.71	247.57	1567	144.64	383.73	665.97	-167.34	155.87	1103.5	-228.69	223.44	631.24	230.18	186.36	456.18	195.66	356.15	1336.2	66.196	345.76	970.03	-132.35	203.77	548.24	211.15	129.68	868.82	-306.88	181.29	975.91	-273.93	146.74	1307.2	177.54	198.97	1414.7	86.719	254.46	707.24	249.97	221.56	35.52	85.107	211.84	26.768	177.93	112.53	990.09	-56.749	156.48	815.48	-316.43	33.763	31.374	128.44	267.77	31.217	94.456	91.657	68.053	170.64	310.44	728.89	-207.07	255.17	1560.5	8.5877	98.467	986.88	76.099	173.48	266.46	176.67	182.86	259.58	115.58	217.85	338.91	112.19	240.71	1057.7	376.45	160.04	177.5	117.58	108.64	75.334	84.948	435.79	281.54	-129.99	558.48	66.622	-160.3	188.05	852.67	-262.35	374.74	850.51	354.82	202.3	1035.6	295.14	438.21	85.478	-138.37	460.48	95.033	-57.162	133.3	1088.9	40.914	405.23	30.543	-87.614	159.19	1060.3	-128.78
707	3.535	391.29	796.44	402.77	413.32	1572.4	24.016	421.34	1568.6	121.33	339.83	839.13	416.22	596.99	91.465	-79.883	294.49	1365	243.89	353.52	563.79	-161.55	349.97	945.06	225.4	446.29	360.66	-57.027	276.85	1219.4	331.56	333.64	946.42	388.46	281.73	1372.8	-113.22	356.11	495.75	-144.56	238.97	1234.6	-195.97	457.18	276.24	-68.879	474.99	192.46	-78.704	629.57	107.68	-89.338	283.22	620.1	213.13	421.31	1216.9	69.862	332.41	646.38	-185.94	252.18	1566.4	143.59	387.23	664.21	-167.2	159.39	1102.9	-229.14	226.97	630.79	229.77	189.27	455.84	195.37	360.68	1335.6	65.372	350.89	969.03	-132.48	207.05	547.89	210.81	131.36	868.45	-307.13	183.85	975.22	-274.38	151.25	1306.7	176.56	203.49	1414.1	85.735	258.2	706.73	249.61	221.58	35.508	85.099	211.84	26.771	177.94	117.37	989.44	-57.796	157.74	814.91	-316.74	33.846	31.737	128.43	267.88	31.176	94.498	91.85	68.301	170.62	314.4	727.5	-207.22	259.8	1559.9	7.5428	102.91	986.38	75.014	175.06	266.16	176.55	184.45	259.17	115.41	220.03	338.26	112.03	245.4	1057.7	375.96	160.98	177.26	117.53	108.8	75.447	84.841	443.88	282.03	-128.9	569.58	68.106	-158.78	189.76	851.9	-262.78	379.2	850.38	354.56	206.56	1035.5	294.84	448.85	85.843	-137.74	470.38	95.661	-56.379	137.88	1088.2	40.051	416.14	30.37	-87.256	162.75	1059.9	-129.14
708	3.54	395.69	796.35	402.54	417.95	1571.6	22.966	425.94	1567.8	120.28	344.29	839.11	415.97	606.54	93.095	-78.117	298.93	1364.7	242.85	356.77	562.19	-161.8	354.05	944.54	224.98	452.38	360.95	-55.715	281.67	1219	330.52	338.13	946.35	387.98	286.14	1372	-114.18	361.15	494.87	-144.05	242.9	1233.9	-196.76	464.47	276.62	-67.672	483.3	193.04	-77.568	639.07	109.61	-87.205	286.79	619.45	212.89	425.9	1216.3	69.551	336.07	644.93	-186.23	256.78	1565.8	142.49	390.85	662.57	-167.06	162.94	1102.4	-229.61	230.55	630.32	229.36	192.22	455.49	195.08	365.21	1334.9	64.498	356.07	967.99	-132.62	210.37	547.51	210.47	133.12	868.03	-307.39	186.48	974.49	-274.86	155.75	1306	175.54	208	1413.4	84.698	262	706.21	249.24	221.61	35.497	85.091	211.83	26.775	177.95	122.22	988.76	-58.852	159.1	814.31	-317.06	33.935	32.124	128.42	267.99	31.139	94.535	92.043	68.559	170.61	318.42	726.13	-207.42	264.42	1559.2	6.4505	107.36	985.86	73.924	176.66	265.86	176.43	186.06	258.75	115.23	222.21	337.61	111.85	250.05	1057.7	375.43	161.93	177.01	117.49	108.97	75.579	84.74	451.7	282.39	-127.78	579.92	69.331	-157.14	191.56	851.09	-263.22	383.58	850.22	354.26	210.77	1035.4	294.52	458.78	86.138	-136.98	479.61	96.183	-55.463	142.48	1087.5	39.171	426.26	30.2	-86.754	166.35	1059.4	-129.53
709	3.545	400.03	796.23	402.25	422.56	1570.8	21.874	430.52	1567	119.19	348.68	839.07	415.68	615.34	94.363	-76.255	303.37	1364.4	241.78	360.36	560.71	-162.04	358.19	944.02	224.5	458.41	361.08	-54.445	286.44	1218.7	329.47	342.57	946.26	387.45	290.57	1371.1	-115.19	366.56	494.06	-143.57	246.84	1233.1	-197.58	471.49	276.83	-66.442	491.13	193.43	-76.352	647.88	111.1	-84.983	290.4	618.79	212.63	430.48	1215.7	69.163	339.93	643.54	-186.56	261.35	1565.1	141.35	394.62	661.08	-166.93	166.53	1101.7	-230.13	234.16	629.83	228.97	195.2	455.13	194.79	369.74	1334.3	63.573	361.3	966.92	-132.79	213.72	547.12	210.14	134.97	867.56	-307.67	189.16	973.71	-275.35	160.25	1305.4	174.46	212.51	1412.7	83.607	265.85	705.67	248.84	221.63	35.486	85.084	211.82	26.781	177.95	127.07	988.06	-59.915	160.57	813.66	-317.39	34.026	32.535	128.42	268.09	31.103	94.566	92.238	68.83	170.59	322.5	724.78	-207.69	269.02	1558.6	5.3108	111.85	985.31	72.832	178.28	265.57	176.31	187.67	258.32	115.02	224.4	336.96	111.66	254.65	1057.7	374.87	162.88	176.76	117.45	109.14	75.732	84.648	459.24	282.58	-126.63	589.49	70.261	-155.39	193.44	850.25	-263.66	387.9	850.04	353.9	214.93	1035.2	294.17	468.01	86.328	-136.1	488.16	96.56	-54.418	147.09	1086.7	38.275	435.59	30.001	-86.116	170	1058.8	-129.95
